<svg width="24" height="24" viewBox="0 0 24 24" fill="none" xmlns="http://www.w3.org/2000/svg">
<path fill-rule="evenodd" clip-rule="evenodd" d="M8.17091 10.4004C8.17091 10.8144 7.83491 11.1504 7.42091 11.1504L4.99991 11.1504C4.58591 11.1504 4.24991 10.8144 4.24991 10.4004C4.24991 9.98639 4.58591 9.65039 4.99991 9.65039L7.42091 9.65039C7.83491 9.65039 8.17091 9.98639 8.17091 10.4004Z" fill="#464646"/>
<path fill-rule="evenodd" clip-rule="evenodd" d="M21.2842 10.4004C21.2842 10.8144 20.9482 11.1504 20.5342 11.1504L18.5112 11.1504C18.0962 11.1504 17.7612 10.8144 17.7612 10.4004C17.7612 9.98639 18.0962 9.65039 18.5112 9.65039L20.5342 9.65039C20.9482 9.65039 21.2842 9.98639 21.2842 10.4004Z" fill="#464646"/>
<path fill-rule="evenodd" clip-rule="evenodd" d="M15.8252 10.4004C15.8252 10.8144 15.4892 11.1504 15.0752 11.1504L10.2542 11.1504C9.84021 11.1504 9.50421 10.8144 9.50421 10.4004C9.50421 9.98639 9.84021 9.65039 10.2542 9.65039L15.0752 9.65039C15.4892 9.65039 15.8252 9.98639 15.8252 10.4004Z" fill="#464646"/>
<mask id="mask0_385_12186" style="mask-type:luminance" maskUnits="userSpaceOnUse" x="4" y="1" width="18" height="22">
<path fill-rule="evenodd" clip-rule="evenodd" d="M4 23L4 1.5L21.4997 1.5L21.4997 23L4 23Z" fill="white"/>
</mask>
<g mask="url(#mask0_385_12186)">
<path fill-rule="evenodd" clip-rule="evenodd" d="M15.5537 21.5L17.4927 21.5C18.8747 21.5 19.9997 20.357 19.9997 18.952L19.9997 5.548C19.9997 4.143 18.8747 3 17.4927 3L15.5537 3C15.2247 4.251 14.0927 5.177 12.7507 5.177C11.4077 5.177 10.2767 4.252 9.9477 3L8.0067 3.001C6.6247 3.001 5.4997 4.144 5.4997 5.549L5.4997 18.951C5.4997 20.356 6.6247 21.499 8.00669 21.499L10.0247 21.5C10.3357 20.233 11.4217 19.323 12.7507 19.323C14.0927 19.323 15.2247 20.249 15.5537 21.5ZM21.4997 5.548L21.4997 18.952C21.4997 21.184 19.7017 23 17.4927 23L14.9007 23C14.4867 23 14.1507 22.664 14.1507 22.25C14.1507 21.463 13.5227 20.823 12.7507 20.823C12.0007 20.823 11.4347 21.437 11.4347 22.25C11.4347 22.449 11.3557 22.64 11.2147 22.78C11.0747 22.921 10.8827 23 10.6847 23L8.00669 22.999C5.79769 22.999 3.9997 21.183 3.9997 18.951L3.9997 5.549C3.9997 3.317 5.7977 1.501 8.0067 1.501L10.6007 1.5C10.7987 1.5 10.9907 1.579 11.1307 1.72C11.2717 1.86 11.3507 2.051 11.3507 2.25C11.3507 3.037 11.9787 3.677 12.7507 3.677C13.5227 3.677 14.1507 3.037 14.1507 2.25C14.1507 1.836 14.4867 1.5 14.9007 1.5L17.4927 1.5C19.7017 1.5 21.4997 3.316 21.4997 5.548Z" fill="#464646"/>
</g>
</svg>
