<svg width="24" height="24" viewBox="0 0 24 24" fill="none" xmlns="http://www.w3.org/2000/svg">
<mask id="mask0_456_1514" style="mask-type:luminance" maskUnits="userSpaceOnUse" x="2" y="8" width="20" height="15">
<path fill-rule="evenodd" clip-rule="evenodd" d="M2.0004 8.79395H22V22.5379H2.0004V8.79395Z" fill="white"/>
</mask>
<g mask="url(#mask0_456_1514)">
<path fill-rule="evenodd" clip-rule="evenodd" d="M17.5654 22.5379H6.4354C3.9904 22.5379 2.0004 20.5489 2.0004 18.1029V13.2279C2.0004 10.7829 3.9904 8.79395 6.4354 8.79395H7.3684C7.7824 8.79395 8.1184 9.12995 8.1184 9.54395C8.1184 9.95795 7.7824 10.2939 7.3684 10.2939H6.4354C4.8164 10.2939 3.5004 11.6099 3.5004 13.2279V18.1029C3.5004 19.7219 4.8164 21.0379 6.4354 21.0379H17.5654C19.1834 21.0379 20.5004 19.7219 20.5004 18.1029V13.2189C20.5004 11.6059 19.1884 10.2939 17.5764 10.2939H16.6334C16.2194 10.2939 15.8834 9.95795 15.8834 9.54395C15.8834 9.12995 16.2194 8.79395 16.6334 8.79395H17.5764C20.0154 8.79395 22.0004 10.7789 22.0004 13.2189V18.1029C22.0004 20.5489 20.0104 22.5379 17.5654 22.5379Z" fill="#464646"/>
</g>
<mask id="mask1_456_1514" style="mask-type:luminance" maskUnits="userSpaceOnUse" x="11" y="2" width="2" height="14">
<path fill-rule="evenodd" clip-rule="evenodd" d="M11.25 2H12.75V15.5409H11.25V2Z" fill="white"/>
</mask>
<g mask="url(#mask1_456_1514)">
<path fill-rule="evenodd" clip-rule="evenodd" d="M12 15.541C11.586 15.541 11.25 15.205 11.25 14.791V2.75C11.25 2.336 11.586 2 12 2C12.414 2 12.75 2.336 12.75 2.75V14.791C12.75 15.205 12.414 15.541 12 15.541Z" fill="#464646"/>
</g>
<path fill-rule="evenodd" clip-rule="evenodd" d="M9.085 6.42853C8.894 6.42853 8.702 6.35553 8.556 6.20953C8.263 5.91753 8.261 5.44353 8.554 5.14953L11.469 2.22153C11.75 1.93853 12.25 1.93853 12.531 2.22153L15.447 5.14953C15.739 5.44353 15.738 5.91753 15.445 6.20953C15.151 6.50153 14.677 6.50153 14.385 6.20753L12 3.81353L9.616 6.20753C9.47 6.35553 9.277 6.42853 9.085 6.42853Z" fill="#464646"/>
</svg>
