<?xml version="1.0" encoding="UTF-8"?>
<svg xmlns="http://www.w3.org/2000/svg" version="1.1" viewBox="0 0 361.3 354.1">
  <defs>
    <style>
      .cls-1 {
        fill: #495683;
      }

      .cls-2 {
        fill: #bf6a4c;
      }

      .cls-3 {
        fill: #434c76;
      }

      .cls-4 {
        fill: #fdfdfb;
      }

      .cls-5 {
        fill: #f68850;
      }

      .cls-6 {
        fill: #eedbbd;
      }

      .cls-7 {
        fill: #f3b558;
      }

      .cls-8 {
        fill: #d49743;
      }

      .cls-9 {
        fill: #f3864f;
      }

      .cls-10 {
        fill: #aebecc;
      }

      .cls-11 {
        fill: #483333;
      }

      .cls-12 {
        fill: #8fa0b2;
      }

      .cls-13 {
        fill: #775f81;
      }

      .cls-14 {
        fill: #4d668e;
      }

      .cls-15 {
        fill: #484f7b;
      }

      .cls-16 {
        fill: #fdfcfc;
      }

      .cls-17 {
        fill: #8e503f;
      }

      .cls-18 {
        fill: #fff;
      }

      .cls-19 {
        fill: #ecd7b7;
      }

      .cls-20 {
        fill: #e94955;
      }

      .cls-21 {
        fill: #e4946e;
      }

      .cls-22 {
        fill: #6b4f4e;
      }

      .cls-23 {
        fill: #607cb1;
      }

      .cls-24 {
        fill: #644947;
      }

      .cls-25 {
        fill: #d17c5a;
      }

      .cls-26 {
        fill: #5f150a;
      }

      .cls-27 {
        fill: #c95d32;
      }

      .cls-28 {
        fill: #fbfcfd;
      }

      .cls-29 {
        fill: #333332;
      }

      .cls-30 {
        fill: #342424;
      }

      .cls-31 {
        fill: #e3926e;
      }

      .cls-32 {
        fill: #1a1a1a;
      }
    </style>
  </defs>
  <!-- Generator: Adobe Illustrator 28.6.0, SVG Export Plug-In . SVG Version: 1.2.0 Build 709)  -->
  <g>
    <g id="Layer_28">
      <g>
        <path class="cls-6" d="M268.8,106.2c4.7-4.8,4.3-12.5-.8-16.8-2.1-1.8-1.6-4.2-1.7-4.6v-4h-1.9c0-2.1-1.7-3.8-3.8-3.8s-3.8,1.7-3.8,3.8h-1.9v4c0,.5.4,2.8-1.7,4.7-2.6,2.2-4.1,5.4-4.1,8.8,0,10.3,12.5,15.3,19.7,8h0ZM260.5,78.9c1.1,0,1.9.9,1.9,1.9h-3.8c0-1.1.9-1.9,1.9-1.9ZM256.7,82.7h7.7v2h-7.7v-2ZM254.3,90.8c1.3-1.1,2.1-2.6,2.3-4.2h2.9v6.8c-1.6.4-2.9,1.9-2.9,3.7h1.9c0-1.1.9-1.9,1.9-1.9s1.9.9,1.9,1.9h1.9c0-1.8-1.2-3.3-2.9-3.7v-6.8h2.9c.2,1.6,1,3.1,2.3,4.2,6.7,5.7,2.7,16.6-5.9,16.9-9,.2-13.3-11-6.5-16.9Z"/>
        <rect class="cls-6" x="259.7" y="27" width="1.7" height="58.3"/>
        <path class="cls-6" d="M301.3,140.4c4.7-4.8,4.3-12.5-.8-16.8-2.1-1.8-1.6-4.2-1.7-4.6v-4h-1.9c0-2.1-1.7-3.8-3.8-3.8s-3.8,1.7-3.8,3.8h-1.9v4c0,.5.5,2.8-1.7,4.7-2.6,2.2-4,5.4-4,8.8,0,10.3,12.5,15.3,19.7,8h0ZM293.1,113.1c1.1,0,1.9.9,1.9,1.9h-3.8c0-1.1.9-1.9,1.9-1.9ZM289.3,117h7.7v2h-7.7v-2ZM286.9,125.1c1.3-1.1,2.1-2.6,2.3-4.2h2.9v6.8c-1.6.4-2.9,1.9-2.9,3.7h1.9c0-1.1.9-1.9,1.9-1.9s1.9.9,1.9,1.9h1.9c0-1.8-1.2-3.3-2.9-3.7v-6.8h2.9c.2,1.6,1,3.1,2.3,4.2,6.7,5.7,2.7,16.6-5.9,16.9-9,.3-13.3-11-6.5-16.9Z"/>
        <rect class="cls-6" x="292.3" y="27.7" width="1.7" height="83.5"/>
        <ellipse class="cls-13" cx="182.2" cy="320.2" rx="160" ry="8.8"/>
        <path class="cls-19" d="M75.8,280.3v-10.8h-5.4l-.9-13.4,31.7-.6s-6.8-30.4-14.3-37.8c0,0,6,11.4.8,12.6s-5.8-17-5.8-17l-1.3-1s-1,21.1-6.1,21.7c-5,.5,1.9-20.1,1.9-20.1,0,0-14.8,24.6-24.1,21.5-9.3-3.1,22-26.1,22-26.1,0,0-20,2.7-20.1-1.8,0-4.5,23.6-1.7,23.6-1.7,0,0-13.1-11.6-11-15.3,2.1-3.6,15.7,15.6,15.7,15.6,0,0,8.7.2,10.5,3.8s-8,1.9-8,1.9c0,0,9.9,11.5,13.4,25.9,3.5,14.4-5.8-49.2-24.8-91.4,0,0,6.8,20.6,1.5,20.9s-9.5-29.5-9.5-29.5c0,0,0,39.8-8.5,39.2-8.4-.6,5.1-41,5.1-41,0,0-27.7,47.3-34,42.2-6.3-5.1,24.9-41.7,24.9-41.7,0,0-26.2,21-32.6,16.7s32.5-24.8,32.5-24.8c0,0-33-4.4-30.2-9.8s33.3,5.7,33.3,5.7c0,0-20.1-19.9-17.2-23.8s22.8,22.3,22.8,22.3c0,0,1.3-11.7,4.8-11.4,3.5.3.3,14,.3,14,0,0,20.7,7.2,21.5,13.7s-20.2-6.1-20.2-6.1c0,0,24.8,40.8,33.2,100.3,0,0-7.1-62.4,11.9-81.9,0,0-14.2-10-11.1-15.9,3.1-5.9,11.1,11,11.1,11,0,0-1.2-23.6,5.4-28.1s-2.6,28.1-2.6,28.1c0,0,17.6-34.4,23.7-33.9,6.1.5-21.2,34.6-21.2,34.6,0,0,38.8-29.7,48.5-25.5s-45.9,26.6-45.9,26.6c0,0,39.2-7.7,41.8.9s-40.9,1.3-40.9,1.3c0,0,23.8,7.2,22.2,14.7-1.6,7.5-24.9-12.8-24.9-12.8,0,0,7.4,19,2.8,19.2s-7.2-19.2-7.2-19.2c0,0-18.7,23.7-9.6,104h27.1v14.6h-6.1v9.7h-50.3Z"/>
        <path class="cls-23" d="M262.5,246.6s-6.7,40.8-18.2,46c0,0,10,13.8,10.8,29.8h-4.9s-2-17.4-10.2-28.3c0,0-8.4,2.6-15.6,2.5l-1.1,1.4s7,19.4,8.3,26.7h-5.1s-7-24.5-9-26l-59.7-1.5s-6.4,17.3-5.2,26h-4.3s1.5-22.7,4.7-26.7l-32.5-4.6-.6-2.9-1.6-8.2-4.1-20.6h0c-.5-.4-18.5-13.3-15.6-25.9,2.9-12.8,11.7-15.6,19.5-14.9,7.7.6,56.8-5.7,56.8-5.7l43.3-69.8s21.6,0,25,1.1c3.3,1.1,13.1,2.3,11.9,28.9-1.2,26.6,11.1,52.9,11.9,54.6.8,1.7,4.2,11.4-4.6,18.1Z"/>
        <path class="cls-29" d="M118.4,280.9l-4.1-20.6,3.8,3.4s0,11.2.7,15.3c.1.7,0,1.4-.5,2Z"/>
        <path class="cls-29" d="M244.3,292.6s10,13.8,10.8,29.8h-4.9s-2-17.4-10.2-28.3c0,0-8.4,2.6-15.6,2.5l-1.1,1.4s7,19.4,8.3,26.7h-5.1s-7-24.5-9-26l-59.7-1.5s-6.4,17.3-5.2,26h-4.3s1.5-22.7,4.7-26.7l-32.5-4.6-.6-2.9c4.1.4,11.1,1.2,21.7,2.8,19.8,2.9,77.2,3.3,77.2,3.3,12.7-3.3,23-36.4,23-36.4,0,0,12.5-10.1,14.4-11.6,2-1.5,6.2-.6,6.2-.6,0,0-6.7,40.8-18.2,46.1Z"/>
        <polygon class="cls-30" points="143.8 220.1 181.4 244.9 201.3 222 143.8 220.1"/>
        <path class="cls-23" d="M230.3,291.8s13.5-19.8,15.2-31.5l10.8-8s-5.8,27.5-13,36.7c0,0-7.3,3.1-13,2.9Z"/>
        <path class="cls-1" d="M206.2,264.9h0l-20.6-.8c-.4,0-.7-.3-.7-.7,0-.4.3-.7.7-.7l20.6.8c.4,0,.7.3.7.7,0,.4-.3.7-.7.7Z"/>
        <path class="cls-1" d="M227.8,273.2c-3.9,0-8.5-.4-12.3-1.9-2.5-1-4.1-2.5-4.9-4.5-1.2-3.4.6-6.8.7-7,.2-.3.6-.5.9-.3s.5.6.3.9c0,0-1.6,3.1-.6,5.8.6,1.6,2,2.8,4.1,3.7,7.5,3,19.5,1.3,19.6,1.2.4,0,.7.2.8.6,0,.4-.2.7-.6.8-.3,0-3.7.5-8,.5Z"/>
        <path class="cls-1" d="M216.7,268.4c-.1,0-.3,0-.4-.1-.3-.2-.4-.7-.1-1,.1-.2,3.4-4.2,14.6-9.3,8.2-3.7,14.3-9.8,18.8-14.2,1.6-1.6,2.9-2.9,4.1-3.9,3.9-3.3,8.7-5.4,11.6-5,1.1.1,2,.6,2.5,1.4.2.3.2.7-.1,1-.3.2-.7.2-1-.1-.3-.4-.8-.7-1.5-.8-2.5-.3-7,1.7-10.6,4.7-1.2,1-2.5,2.3-4.1,3.9-4.5,4.5-10.8,10.7-19.2,14.5-10.8,4.9-14.1,8.8-14.1,8.9-.2.2-.4.3-.6.3Z"/>
        <path class="cls-1" d="M241,230.6c-.2,0-.4,0-.5-.2-.2-.3-.2-.7,0-1,11.1-9.8,24.7-1.6,24.9-1.5.3.2.4.6.2.9-.2.3-.6.4-1,.2-.1,0-12.9-7.7-23.2,1.4-.1.1-.3.2-.5.2Z"/>
        <path class="cls-1" d="M119.6,263.2c-.2,0-.3,0-.5-.2-.3-.3-.3-.7,0-1,.2-.2,5-5.3,18.2-6.8.4,0,.7.2.8.6,0,.4-.2.7-.6.8-12.6,1.4-17.2,6.3-17.3,6.3-.1.1-.3.2-.5.2Z"/>
        <path class="cls-1" d="M152,262.5h0l-23.5-.4c-.4,0-.7-.3-.7-.7s.3-.7.7-.7h0l23.5.4c.4,0,.7.3.7.7,0,.4-.3.7-.7.7Z"/>
        <rect class="cls-13" x="287.9" y="249" width="2.2" height="80.3" transform="translate(-117.9 249.7) rotate(-39.5)"/>
        <rect class="cls-13" x="253.8" y="288.2" width="81.3" height="2.2" transform="translate(-117.6 314.2) rotate(-47.9)"/>
        <rect class="cls-13" x="290.7" y="259.1" width="2.2" height="61.6"/>
        <rect class="cls-17" x="257" y="246.7" width="72.4" height="12.7"/>
        <path class="cls-20" d="M273.8,238.7c0,2.5,2,4.6,6.5,4.8.6,1.3,1.4,2.4,2.6,3.3h13c4.2-3.3,4.2-10.2,4.2-15h-21.4c0,.7,0,1.5,0,2.3-3.4.6-4.9,2.4-4.9,4.6ZM293.1,244.9s2.5-7,1-11.4h3.4s1.1,7.2-4.4,11.4ZM276.6,238.7c0-1.2.3-2.1,2.2-2.6.1,1.7.3,3.5.8,5.1-2.6-.3-3-1.2-3-2.6Z"/>
        <path class="cls-26" d="M223.5,121.6c-2.8-6.2-7.9-6.4-10.9-2.4s6.4,12.8,6.4,12.8c0,0,10.1,2,4.6-10.4Z"/>
        <path class="cls-26" d="M191.1,127.9s-6.8-6.7-1.1-12.4,12.6-1.6,12.6-1.6c0,0,.6-4.4,6-4.9s5,10.6,6.2,12.6c1.1,2,20,31.9,11.3,43.3l-42-7.7s2.1-10.9,5.8-13.4l1.2-15.8Z"/>
        <path class="cls-21" d="M215,136.8c-2.3,4.8-6.4,2.3-6.4,2.3l-1.5,4.5v2.8c-5.8,8.6-14.6,4.9-14.6,4.9l-.3-2-.3-2c-1.2,0-2.4-.4-3.4-.9-2.2-1.2-2.7-3.5-2.9-5.8-.2-3,.5-6,1.6-8.8.6-1.3,1.5-2.5,2-3.8,0,0,2.9-7.3,8.2-8.6,0,0,2.1-.8,3.5,1.6,1.4,2.5,3.9,2.9,5.6,3.5,1.8.5,1.8,4.7,1.4,7.4-.4,2.8,1.5,3.4,1.6,2.2,0-.9,1.1-1.6,1.9-2.1.9-.5,1.7-.5,2.6,0,1.8,1,1.7,3.3.9,4.9Z"/>
        <path class="cls-25" d="M204.6,143.1s-2.4,4.5-12.4,6.2l-.3-2s7.5.3,12.7-4.1Z"/>
        <path class="cls-7" d="M191.4,150.4s-1.3,1.6-.8,2.6c.5,1.1.9,2.3-.9,2.6-1.8.3-15.6,5.9-18.7,11.9s-4.9,16.6-6.4,22.2-7.7,29.6-7.7,29.6l61.7-.8s-1.8-14.8-1.5-18.1,2.8-11.3,2.8-11.3l5.1,8.4,16.8,21.9s7.5-6.1,1.8-14.9c0,0-.4-4,.8-5.4s-4.2-13.6-4.2-13.6l-11-20.8s-16-11-17.4-12.2.5-2.3-2.2-3.7c0,0,.7-4.2-2.4-4.9,0,0-1.3,3-2.8,4.2-1.6,1.2-4.7,3.2-8.2,3s-3.4-1.3-3.4-1.3c0,0-.8-.2-1.3.5Z"/>
        <path class="cls-8" d="M164.9,204.2s0,0-.1,0c-.1,0-.2-.2-.2-.4l10.1-27.5c0-.1.2-.2.4-.2.1,0,.2.2.2.4l-10.1,27.5c0,.1-.1.2-.3.2Z"/>
        <path class="cls-8" d="M182.1,210.7c0,0-.1,0-.1,0-.1,0-.2-.2,0-.4,1.1-1.7,2.2-3.6,2.8-5.5.3-1,.2-2.1.2-3.2,0-.4,0-.9,0-1.3,0-2.6.6-4.9,1.4-7.2.1-.5.3-.9.4-1.4.5-1.8,1-4,1.4-6.1.3-1.5.6-2.9.9-4.2,0-.1.2-.2.3-.2.1,0,.2.2.2.3-.3,1.3-.6,2.7-.9,4.1-.4,2.1-.9,4.3-1.4,6.1-.1.5-.3.9-.4,1.4-.7,2.3-1.4,4.5-1.3,7.1,0,.4,0,.8,0,1.2,0,1.1.1,2.3-.2,3.4-.6,2-1.7,3.9-2.8,5.7,0,0-.1.1-.2.1Z"/>
        <path class="cls-8" d="M207.4,213.1s0,0-.1,0c-.3-.1-6.6-3.6-8.4-5-2-1.5-7.4-4.8-13.9-3.1-.1,0-.3,0-.3-.2s0-.3.2-.3c6.8-1.8,12.3,1.6,14.4,3.2,1.9,1.4,8.3,4.9,8.4,4.9.1,0,.2.2.1.4,0,0-.1.1-.2.1Z"/>
        <path class="cls-8" d="M219.9,189.4c-.1,0-.2,0-.2-.1l-3.2-6.4c0-.1,0-.3.1-.4.1,0,.3,0,.4.1l3.2,6.4c0,.1,0,.3-.1.4,0,0,0,0-.1,0Z"/>
        <path class="cls-8" d="M217.8,181.4h0c-.1,0-.2-.2-.2-.3,1.4-7.9,11.1-16.2,11.5-16.5.1-.1.3,0,.4,0,.1.1,0,.3,0,.4-.1,0-9.9,8.4-11.3,16.2,0,.1-.2.2-.3.2Z"/>
        <path class="cls-8" d="M202.5,153.7h0c-.1,0-.3-.1-.3-.3s.1-.3.3-.3,3.7,0,6.8-4.4c0-.1.3-.2.4,0s.2.3,0,.4c-3.1,4.5-6.8,4.7-7.2,4.7Z"/>
        <path class="cls-8" d="M200,157.5c-2.5,0-4.2-.5-4.3-.5-.1,0-.2-.2-.2-.3,0-.1.2-.2.3-.2,0,0,9.5,2.7,15.3-4.6.1-.1.3-.1.4,0s.1.3,0,.4c-3.5,4.4-8.2,5.3-11.6,5.3Z"/>
        <path class="cls-8" d="M241.9,201.7c-.1,0-.2,0-.3-.2,0-.2-1.4-4.9-10.6-3.6-.1,0-.3,0-.3-.2,0-.1,0-.3.2-.3,9.7-1.3,11.1,3.8,11.2,4.1,0,.1,0,.3-.2.3,0,0,0,0,0,0Z"/>
        <path class="cls-24" d="M182.1,210.4s8.2.3,11.9,2.1,10.2,6.3,10.2,6.3l-5.9,3.6-27.2-1.4,5-4.1s5.6-3,6.1-6.6Z"/>
        <polygon class="cls-10" points="164.5 215.4 201.3 220.5 167.7 224.7 164.5 215.4"/>
        <path class="cls-22" d="M234.6,233.6c-4.6,3-20.3,17.2-20.3,17.2l-33.9-3.1.9-6.8,16.9-18.5,3.1-.4v-1.6h-1.1c0,.1,18.2-17,18.2-17,0,0,15.8-6.6,21.3,4.1,5.6,10.7-.5,23-5.1,26.1Z"/>
        <path class="cls-32" d="M185.6,258.3s-2.3,12.4-8.1,13.3c-1.6-3.5,1.9-13,1.9-13l6.2-.3Z"/>
        <path class="cls-22" d="M111.9,223.9c-3.9,11.3,0,19.7,6.8,23.9,6.9,4.3,58.8,23.8,58.8,23.8,0,0,4.1-24.6,8.8-27.5l-6.5-4.3s-13.4-9.4-26.2-14.6c-11.5-4.7-37.9-12.3-41.6-1.3Z"/>
        <path class="cls-11" d="M215.7,246.1l-.7-.9c.2-.1,18.4-15.4,20.4-17.2l.7.8c-2,1.8-19.7,16.6-20.4,17.3Z"/>
        <path class="cls-11" d="M186.1,244.7c-.3-.1-26.1-10.1-33.8-14.2s-15.7-9.5-15.8-9.5l.6-.9c0,0,8,5.4,15.7,9.5,7.6,4.1,33.5,14.1,33.7,14.2l-.4,1Z"/>
        <path class="cls-11" d="M160.9,234.4c-.2,0-.4-.1-.5-.4-1.4-3.6-9.4-8.2-9.5-8.3-.3-.1-.4-.5-.2-.8.1-.3.5-.4.8-.2.3.2,8.4,4.8,9.9,8.8.1.3,0,.6-.3.7,0,0-.1,0-.2,0Z"/>
        <path class="cls-31" d="M186.3,244.1l17,4.1s2.8-3.3,6.9-2.7,8.8,1.2,8.8,1.2c0,0-7.2,9.2-6.9,13.5,0,0-2.2-2.6-7.1-2.1-4.9.5-25,2.1-25,2.1,0,0,3-14.1,6.4-16.1Z"/>
        <polygon class="cls-22" points="201.3 220.5 201.3 222 198.2 222.4 200.2 220.6 201.3 220.5"/>
        <polygon class="cls-12" points="200.2 220.6 198.2 222.4 169.2 226.3 121.5 219.4 108.6 178.6 159.2 183.1 169.4 224 200.2 220.6"/>
        <path d="M184.1,176.6s4.8,3.1,5,4.5c.2,1.4-2.1,3-4.4,1.3-2.4-1.7-.6-5.8-.6-5.8Z"/>
        <path class="cls-21" d="M175,176.4s3.7-9.3,4.1-13.2c.4-3.9,0-9.4,2.4-13.1,2.4-3.7,3.4-7.8,3.4-7.8,0,0,1-.7.7,2.4s-1,4.6-1.1,6.6-.2,2.6-.2,2.6c0,0,2.5-2.8,4.9-.3s3.1,3.1,4.2,3.3-1.9,1-3.6.3c0,0,1.5,1.7,3.6,1.9s0,1.9-1.5,1.6-3.9-1.3-3.9-1.3c0,0,2.8,2.6,3.6,2.9s-2,1.8-4.8-.5c0,0,1.1,3.4-.8,5.5,0,0-.6,1.9-.5,5.6s-.9,9.7-.9,9.7c0,0-7.8-6-9.7-5.9Z"/>
        <path class="cls-21" d="M223.1,196.7s3.3-3.9,6.9-.3c0,0,3.7-.8,4.9,2.6,0,0,2.9,1.6,3.1,4.1.2,2.4-3.1,8-7.4,7,0,0-1.6,2.5-4.8,1.2,0,0-1.9,1.1-2.7.7-.8-.4,0-3.3,0-3.3,0,0-2.7-.7-2-2.4s1.7-3.3,1.7-3.3c0,0-3.8,1.5-6,.9-2.2-.7,0-.6,2.2-2.4s4.1-4.8,4.1-4.8Z"/>
        <rect class="cls-2" x="220.6" y="204.5" width="8.7" height=".6" transform="translate(-57.8 316.9) rotate(-63.9)"/>
        <rect class="cls-2" x="223.2" y="206.7" width="9.7" height=".6" transform="translate(-63.5 306.3) rotate(-61)"/>
        <rect class="cls-2" x="228.8" y="206.8" width="6.8" height=".5" transform="translate(-64.1 302) rotate(-59.5)"/>
        <path class="cls-26" d="M204.8,128.9c-.2,0-.4-.1-.5-.3-.4-1-3-2.4-4.5-2.9-.3-.1-.4-.4-.3-.7.1-.3.4-.4.7-.3.4.2,4.4,1.7,5.1,3.5.1.3,0,.6-.3.7,0,0-.1,0-.2,0Z"/>
        <path d="M202.2,132.1c-.2,0-.4,0-.5-.2-1.2-1.9-2.9-1.1-3.1-1-.3.1-.6,0-.8-.2-.1-.3,0-.6.2-.8.9-.6,3.1-1,4.6,1.3.2.3,0,.6-.2.8,0,0-.2,0-.3,0Z"/>
        <path d="M189.1,130.2c0,0-.2,0-.3,0-.3-.1-.4-.5-.2-.8.4-.8,1.9-2,4.1-1.1.3.1.4.4.3.7s-.4.4-.7.3c-1.8-.7-2.6.5-2.7.6-.1.2-.3.3-.5.3Z"/>
        <path class="cls-26" d="M190.3,126.3c-.2,0-.4,0-.5-.3-.1-.3,0-.6.2-.8,1.8-1,4.2-.7,4.3-.7.3,0,.5.3.5.6,0,.3-.3.5-.6.5,0,0-2.1-.3-3.5.6-.1,0-.2,0-.3,0Z"/>
        <path class="cls-2" d="M194.1,135.5c-.2-.1-2.2-1.2-2.2-2.4,0-.4.2-.8.8-1.1,1.9-1.1,1.8-4.7,1.8-4.7h.6c0,.2,0,3.9-2.1,5.2-.5.3-.5.6-.5.6,0,.6,1.2,1.5,1.9,1.9l-.3.5Z"/>
        <path class="cls-4" d="M192.9,140.9c-2.5.4-4-4.2-4-4.2,0,0,5.1.8,7.7.5s-.3,3.2-3.7,3.7Z"/>
        <path class="cls-14" d="M60.6,284.4s-14.5,1.7-17,8.2-3.5,31-3.5,31c0,0,83.7,6.2,104.8,0,0,0,1.9-31.1-12-37.4-6.5-3-72.4-1.8-72.4-1.8Z"/>
        <path class="cls-3" d="M47.4,291.6s46.7,8.1,88,0"/>
        <path class="cls-15" d="M105.2,319.7s2.2,5.2,5.5,4.8,5.9-8,7.6-14.7c1.7-6.7,6.1-11.5,6.1-11.5,0,0-11.8,5-13.9,7.9s-5.4,13.5-5.4,13.5Z"/>
        <path class="cls-5" d="M127.9,296c-7.6,8.8-12.5,6-14.1,13.3-1.6,7.3-3.6,12-7.4,11.3-3.8-.7-5.9-3.9-4.9-9.7,1-5.8,4.8-11,12.8-13.9,8-2.8,14.9-5.6,10.3-10.6,0,0-2.8,7.2-10.6,7.4-7.7.1-13.7,0-13.7,0,0,0-1.9,3.7-4.8,3.3-2.7-.4-3.3-1.7-3.3-1.9t0,0h-16.1l-3.4-16.3s5.9-3.6,7.6-5.1c1.7-1.6,19.4-11.8,31.5-6.2,12.1,5.6,11.4,13.8,11.4,13.8,0,0,12.3,5.7,4.7,14.5Z"/>
        <path class="cls-28" d="M100.3,293.9s-1.9,3.7-4.8,3.3c-2.7-.4-3.3-1.7-3.3-1.9t0,0c-.7-5,3.7-5,5.4-4.9,1.7.1,2.7,3.4,2.7,3.4Z"/>
        <path class="cls-27" d="M92.2,295.7c-.2,0-.4-.1-.4-.3-.4-1.9-.2-3.3.5-4.2.9-1.1,2.4-1.3,3.7-1.4,2.2,0,4.5-1.5,7.4-4.5,3.3-3.5,9.3-6.1,9.5-6.2.2,0,.4,0,.5.2,0,.2,0,.5-.2.5,0,0-6,2.6-9.3,6-3.1,3.2-5.6,4.7-8,4.8-1.2,0-2.4.2-3.1,1-.6.7-.7,1.9-.3,3.6,0,.2,0,.4-.3.5,0,0,0,0,0,0Z"/>
        <path class="cls-27" d="M98.8,290.1c0,0-.2,0-.2,0-.2-.1-.2-.4-.1-.6,1.7-2.6-1.2-5-1.3-5.1-.7-.6-3.8-4.5-4.2-5-.1-.2-.1-.4,0-.6.2-.1.4-.1.6,0,1.3,1.7,3.5,4.5,4,4.9,1.3,1,3.2,3.6,1.5,6.2,0,.1-.2.2-.3.2Z"/>
        <path class="cls-16" d="M96.4,282.3s9.4-1.6,10-.8c.6.8-5.3,6.1-5.3,6.1l-1.3.9s.1-1.4,0-1.9c-.2-.5-1.5-2.2-2.2-3s-1-1.3-1-1.3Z"/>
        <path class="cls-9" d="M60.3,273.7s-.3,4.3,1.3,7.2c1.6,2.9-.7,4.7-1.3,5.4-.6.7-3.5,3.9,2.9,6.6,6.4,2.7,15.6,3.1,20.5,1.5,0,0,5.9-1,7.2-4.7,1.4-3.7-6.4-18-8.9-18-2.4,0-3.2,6-3.2,6,0,0-8.3.7-9.4.4s-8.5-6-9.1-4.4Z"/>
        <path class="cls-27" d="M83.7,294.8c-.2,0-.4-.1-.4-.4,0-.2.1-.4.3-.5,0,0,5.7-1,6.9-4.4.8-2.3-2.4-9.8-5.6-14.5-1.5-2.2-2.5-3-2.9-3-1.7,0-2.6,4.2-2.8,5.7v.3s-.4,0-.4,0c-.8,0-8.4.7-9.6.4-.2,0-.4-.3-.3-.5s.3-.4.5-.3c.8.2,5.7-.1,9-.4.2-1.4,1.2-6.1,3.6-6.1h0c.8,0,2,1.1,3.6,3.3,3.1,4.5,6.7,12.5,5.7,15.3-1.4,3.9-7.3,4.9-7.6,4.9,0,0,0,0,0,0Z"/>
        <path class="cls-18" d="M83.2,280.8c-1.5,0-2.2,2.7-3.2,2.7-1,0-4.5,0-4.8,2.3-.3,2.3.9,5.6,3.7,5.9s7.7-1.3,8-4.7c.3-3.5-1.1-4-1.6-4.6-.5-.6-.8-1.5-2.1-1.5Z"/>
        <path class="cls-27" d="M77.8,280.7c0,0-.1,0-.2,0-.2-.1-.3-.4-.2-.6,0,0,.8-1.5,1-2.5,0-.2.3-.4.5-.3.2,0,.4.2.3.5-.2,1.1-1.1,2.7-1.1,2.7,0,.1-.2.2-.4.2Z"/>
        <path class="cls-27" d="M62.7,283.7s0,0-.2,0c-.2,0-.3-.3-.2-.5,1.1-2.8,3.2-4.2,3.3-4.3.2-.1.4,0,.6.1.1.2,0,.5-.1.6,0,0-2,1.4-3,3.9,0,.2-.2.3-.4.3Z"/>
        <path class="cls-27" d="M69.6,289.2c-.2,0-.3-.1-.4-.3-.7-2.1-3.8-1.5-3.8-1.5-.2,0-.4-.1-.5-.3,0-.2,0-.4.3-.5,1.3-.2,4-.2,4.8,2,0,.2,0,.5-.2.5,0,0,0,0-.1,0Z"/>
        <path class="cls-27" d="M78.1,289.2c0,0-.2,0-.3-.1-.2-.1-.2-.4,0-.6,0,0,1.5-1.7,5.3-1.1.2,0,.4.2.3.5s-.3.4-.5.3c-3.3-.6-4.5.7-4.5.8,0,.1-.2.1-.3.1Z"/>
        <path d="M69.9,290.1s5.9.4,7-.1-1.4,2.2-2.1,2.7-1.8,1.2-2.7.4c-.9-.8-2-2.1-2.2-2.9Z"/>
      </g>
    </g>
  </g>
</svg>